<mxfile host="app.diagrams.net" modified="2023-02-02T10:54:46.380Z" agent="5.0 (X11; Linux x86_64) AppleWebKit/537.36 (KHTML, like Gecko) Chrome/109.0.0.0 Safari/537.36" etag="wrzg3SovVIEPm5epuPwo" version="20.8.15" type="github">
  <diagram id="C5RBs43oDa-KdzZeNtuy" name="Page-1">
    <mxGraphModel dx="814" dy="1571" grid="1" gridSize="11" guides="1" tooltips="1" connect="1" arrows="1" fold="1" page="1" pageScale="1" pageWidth="827" pageHeight="1169" math="0" shadow="0">
      <root>
        <mxCell id="WIyWlLk6GJQsqaUBKTNV-0" />
        <mxCell id="WIyWlLk6GJQsqaUBKTNV-1" parent="WIyWlLk6GJQsqaUBKTNV-0" />
        <mxCell id="54AKTE2ZIrHMN2heclHY-2" value="" style="edgeStyle=none;curved=1;rounded=0;orthogonalLoop=1;jettySize=auto;html=1;fontSize=12;startSize=8;endSize=8;labelBackgroundColor=none;strokeColor=#23445D;fontColor=default;" edge="1" parent="WIyWlLk6GJQsqaUBKTNV-1" source="54AKTE2ZIrHMN2heclHY-0" target="54AKTE2ZIrHMN2heclHY-1">
          <mxGeometry relative="1" as="geometry" />
        </mxCell>
        <mxCell id="54AKTE2ZIrHMN2heclHY-0" value="start" style="ellipse;whiteSpace=wrap;html=1;fontSize=16;labelBackgroundColor=none;fillColor=#182E3E;strokeColor=#FFFFFF;fontColor=#FFFFFF;" vertex="1" parent="WIyWlLk6GJQsqaUBKTNV-1">
          <mxGeometry x="350" y="-1160" width="100" height="50" as="geometry" />
        </mxCell>
        <mxCell id="54AKTE2ZIrHMN2heclHY-4" value="" style="edgeStyle=none;curved=1;rounded=0;orthogonalLoop=1;jettySize=auto;html=1;fontSize=12;startSize=8;endSize=8;labelBackgroundColor=none;strokeColor=#23445D;fontColor=default;" edge="1" parent="WIyWlLk6GJQsqaUBKTNV-1" source="54AKTE2ZIrHMN2heclHY-1" target="54AKTE2ZIrHMN2heclHY-3">
          <mxGeometry relative="1" as="geometry" />
        </mxCell>
        <mxCell id="54AKTE2ZIrHMN2heclHY-1" value="double add( double a, double b);" style="whiteSpace=wrap;html=1;fontSize=16;labelBackgroundColor=none;fillColor=#182E3E;strokeColor=#FFFFFF;fontColor=#FFFFFF;" vertex="1" parent="WIyWlLk6GJQsqaUBKTNV-1">
          <mxGeometry x="320" y="-1070" width="160" height="60" as="geometry" />
        </mxCell>
        <mxCell id="54AKTE2ZIrHMN2heclHY-6" value="" style="edgeStyle=none;curved=1;rounded=0;orthogonalLoop=1;jettySize=auto;html=1;fontSize=12;startSize=8;endSize=8;labelBackgroundColor=none;strokeColor=#23445D;fontColor=default;" edge="1" parent="WIyWlLk6GJQsqaUBKTNV-1" source="54AKTE2ZIrHMN2heclHY-3" target="54AKTE2ZIrHMN2heclHY-5">
          <mxGeometry relative="1" as="geometry" />
        </mxCell>
        <mxCell id="54AKTE2ZIrHMN2heclHY-3" value="double a = 2.7, b = 2.8, c;&lt;br&gt;c = add(a , b)" style="whiteSpace=wrap;html=1;fontSize=16;labelBackgroundColor=none;fillColor=#182E3E;strokeColor=#FFFFFF;fontColor=#FFFFFF;" vertex="1" parent="WIyWlLk6GJQsqaUBKTNV-1">
          <mxGeometry x="340" y="-980" width="120" height="60" as="geometry" />
        </mxCell>
        <mxCell id="54AKTE2ZIrHMN2heclHY-8" value="" style="edgeStyle=none;curved=1;rounded=0;orthogonalLoop=1;jettySize=auto;html=1;fontSize=12;startSize=8;endSize=8;labelBackgroundColor=none;strokeColor=#23445D;fontColor=default;" edge="1" parent="WIyWlLk6GJQsqaUBKTNV-1" source="54AKTE2ZIrHMN2heclHY-5" target="54AKTE2ZIrHMN2heclHY-7">
          <mxGeometry relative="1" as="geometry" />
        </mxCell>
        <mxCell id="54AKTE2ZIrHMN2heclHY-5" value="printf(&quot;%lf\n&quot;, c);" style="shape=parallelogram;perimeter=parallelogramPerimeter;whiteSpace=wrap;html=1;fixedSize=1;fontSize=16;labelBackgroundColor=none;fillColor=#182E3E;strokeColor=#FFFFFF;fontColor=#FFFFFF;" vertex="1" parent="WIyWlLk6GJQsqaUBKTNV-1">
          <mxGeometry x="310" y="-890" width="180" height="60" as="geometry" />
        </mxCell>
        <mxCell id="54AKTE2ZIrHMN2heclHY-7" value="end" style="ellipse;whiteSpace=wrap;html=1;fontSize=16;labelBackgroundColor=none;fillColor=#182E3E;strokeColor=#FFFFFF;fontColor=#FFFFFF;" vertex="1" parent="WIyWlLk6GJQsqaUBKTNV-1">
          <mxGeometry x="350" y="-800" width="100" height="50" as="geometry" />
        </mxCell>
        <mxCell id="54AKTE2ZIrHMN2heclHY-11" value="" style="edgeStyle=none;curved=1;rounded=0;orthogonalLoop=1;jettySize=auto;html=1;fontSize=12;startSize=8;endSize=8;labelBackgroundColor=none;strokeColor=#23445D;fontColor=default;" edge="1" parent="WIyWlLk6GJQsqaUBKTNV-1" source="54AKTE2ZIrHMN2heclHY-9" target="54AKTE2ZIrHMN2heclHY-10">
          <mxGeometry relative="1" as="geometry" />
        </mxCell>
        <mxCell id="54AKTE2ZIrHMN2heclHY-9" value="double add(double a, double b)" style="rounded=0;whiteSpace=wrap;html=1;fontSize=16;labelBackgroundColor=none;fillColor=#182E3E;strokeColor=#FFFFFF;fontColor=#FFFFFF;" vertex="1" parent="WIyWlLk6GJQsqaUBKTNV-1">
          <mxGeometry x="80" y="-1000" width="120" height="60" as="geometry" />
        </mxCell>
        <mxCell id="54AKTE2ZIrHMN2heclHY-13" style="edgeStyle=none;curved=1;rounded=0;orthogonalLoop=1;jettySize=auto;html=1;exitX=0.5;exitY=1;exitDx=0;exitDy=0;entryX=0.5;entryY=0;entryDx=0;entryDy=0;fontSize=12;startSize=8;endSize=8;labelBackgroundColor=none;strokeColor=#23445D;fontColor=default;" edge="1" parent="WIyWlLk6GJQsqaUBKTNV-1" source="54AKTE2ZIrHMN2heclHY-10" target="54AKTE2ZIrHMN2heclHY-12">
          <mxGeometry relative="1" as="geometry" />
        </mxCell>
        <mxCell id="54AKTE2ZIrHMN2heclHY-10" value="double sum&lt;br&gt;&amp;nbsp;= a, b" style="whiteSpace=wrap;html=1;fontSize=16;rounded=0;labelBackgroundColor=none;fillColor=#182E3E;strokeColor=#FFFFFF;fontColor=#FFFFFF;" vertex="1" parent="WIyWlLk6GJQsqaUBKTNV-1">
          <mxGeometry x="80" y="-910" width="120" height="60" as="geometry" />
        </mxCell>
        <mxCell id="54AKTE2ZIrHMN2heclHY-12" value="end" style="ellipse;whiteSpace=wrap;html=1;fontSize=16;labelBackgroundColor=none;fillColor=#182E3E;strokeColor=#FFFFFF;fontColor=#FFFFFF;" vertex="1" parent="WIyWlLk6GJQsqaUBKTNV-1">
          <mxGeometry x="95" y="-830" width="90" height="50" as="geometry" />
        </mxCell>
      </root>
    </mxGraphModel>
  </diagram>
</mxfile>
